<svg width="701" height="190" viewBox="0 0 701 190" fill="none" xmlns="http://www.w3.org/2000/svg">
<g clip-path="url(#clip0_0_3)">
<g clip-path="url(#clip1_0_3)">
<g clip-path="url(#clip2_0_3)">
<g clip-path="url(#clip3_0_3)">
<g clip-path="url(#clip4_0_3)">
<g clip-path="url(#clip5_0_3)">
<path d="M699.89 26.6H217.868V163.249H699.89V26.6Z" fill="#4B91F1"/>
<g clip-path="url(#clip6_0_3)">
<path d="M303.059 134.478H289.552L256.979 98.3862V134.478H246.65V55.3707H256.979V92.0304L289.666 55.3707H302.718L266.853 94.9813L303.059 134.478ZM367.752 134.478L361.396 116.886H326.893L320.537 134.478H309.641L338.243 55.8247H350.16L378.648 134.478H367.752ZM329.844 108.487H358.445L344.145 68.5364L329.844 108.487ZM401.461 55.3707V126.08H429.154V134.478H391.133V55.3707H401.461ZM509.374 55.9382H520.384V134.478H510.055V75.9137L483.951 134.478H476.687L450.469 75.8002V134.478H440.141V55.9382H451.264L480.319 120.859L509.374 55.9382ZM590.979 134.478L584.623 116.886H550.12L543.764 134.478H532.868L561.47 55.8247H573.387L601.875 134.478H590.979ZM553.071 108.487H581.672L567.371 68.5364L553.071 108.487ZM671.108 55.3707L646.706 94.9813L670.995 134.478H659.304L640.35 103.607L622.304 134.478H610.841L635.016 94.9813L610.728 55.3707H622.304L641.372 86.3555L659.531 55.3707H671.108Z" fill="white"/>
</g>
</g>
</g>
</g>
<g clip-path="url(#clip7_0_3)">
<g clip-path="url(#clip8_0_3)">
<path d="M5.84802 180.176C3.31618 180.176 1.26135 182.231 1.26135 184.762C1.26135 187.294 3.31618 189.349 5.84802 189.349H79.7736H118.311H192.236C194.768 189.349 196.823 187.294 196.823 184.762C196.823 182.231 194.768 180.176 192.236 180.176H176.777V168.636C176.777 168.386 176.743 168.145 176.704 167.906C192.218 162.912 203.483 148.353 203.483 131.199C203.483 114.045 192.218 99.4848 176.704 94.49C176.743 94.2492 176.777 94.0061 176.777 93.7538V28.9121H180.366C185.104 28.9121 188.959 25.057 188.959 20.319V9.09312C188.959 4.35509 185.104 0.5 180.366 0.5H17.7183C12.9826 0.5 9.12748 4.35509 9.12748 9.09312V20.319C9.12748 25.057 12.9826 28.9121 17.7183 28.9121H21.3097V180.176H5.84802ZM113.724 180.173H84.3603V151.89H113.724V180.173ZM18.3008 9.67562H179.788V19.7411H144.452C144.418 19.7411 144.386 19.7502 144.352 19.7502H140.152C137.621 19.7502 135.566 21.8051 135.566 24.3369C135.566 26.8687 137.621 28.9236 140.152 28.9236H167.606V92.77C166.712 92.7057 165.824 92.6324 164.916 92.6324C158.086 92.6324 151.679 94.4349 146.108 97.5607V94.5129C146.108 91.981 144.053 89.9262 141.522 89.9262H117.921C115.389 89.9262 113.334 91.981 113.334 94.5129V124.423C113.334 126.954 115.389 129.009 117.921 129.009H126.459C126.418 129.738 126.349 130.459 126.349 131.199C126.349 144.086 132.747 156.066 143.462 163.253C145.574 164.664 148.418 164.104 149.826 161.999C151.236 159.896 150.674 157.045 148.571 155.635C140.4 150.156 135.522 141.022 135.522 131.202C135.522 114.992 148.709 101.806 164.916 101.806C181.123 101.806 194.307 114.992 194.307 131.199C194.307 147.406 181.123 160.591 164.916 160.591C162.602 160.591 160.297 160.322 158.073 159.79C155.616 159.203 153.135 160.721 152.548 163.187C151.961 165.652 153.481 168.124 155.944 168.711C158.868 169.409 161.886 169.762 164.916 169.762C165.824 169.762 166.712 169.688 167.604 169.626V180.171H122.897V147.303C122.897 144.771 120.843 142.716 118.311 142.716H79.7736C77.2418 142.716 75.1869 144.771 75.1869 147.303V180.173H30.483V28.9236H128.255C130.786 28.9236 132.841 26.8687 132.841 24.3369C132.841 21.8051 130.786 19.7502 128.255 19.7502H120.902C120.868 19.7502 120.836 19.7411 120.801 19.7411H18.3008V9.67562ZM128.044 119.905C127.821 119.873 127.601 119.836 127.369 119.836H122.508V99.0995H136.935V101.058C136.935 102.079 137.279 103.01 137.843 103.773C133.353 108.206 129.94 113.724 128.044 119.905Z" fill="#4B91F1"/>
<path d="M80.1681 38.9982H56.5742C54.0424 38.9982 51.9876 41.053 51.9876 43.5848V73.4807C51.9876 76.0126 54.0424 78.0674 56.5742 78.0674H80.1681C82.6999 78.0674 84.7547 76.0126 84.7547 73.4807V43.5848C84.7547 41.0507 82.7022 38.9982 80.1681 38.9982ZM75.5814 68.8918H61.1609V48.1692H75.5814V68.8918Z" fill="#4B91F1"/>
<path d="M113.332 43.5848V73.4807C113.332 76.0126 115.387 78.0674 117.919 78.0674H141.512C144.044 78.0674 146.099 76.0126 146.099 73.4807V43.5848C146.099 41.053 144.044 38.9982 141.512 38.9982H117.919C115.387 38.9982 113.332 41.0507 113.332 43.5848ZM122.505 48.1715H136.926V68.8941H122.505V48.1715Z" fill="#4B91F1"/>
<path d="M80.1681 89.9354H56.5742C54.0424 89.9354 51.9876 91.9902 51.9876 94.5221V104.865C51.9876 107.397 54.0424 109.452 56.5742 109.452C59.1061 109.452 61.1609 107.397 61.1609 104.865V99.1087H75.5814V119.829H61.1609V116.905C61.1609 114.373 59.1061 112.318 56.5742 112.318C54.0424 112.318 51.9876 114.373 51.9876 116.905V124.416C51.9876 126.947 54.0424 129.002 56.5742 129.002H80.1681C82.6999 129.002 84.7547 126.947 84.7547 124.416V94.5221C84.7547 91.9879 82.7022 89.9354 80.1681 89.9354Z" fill="#4B91F1"/>
<path d="M161.552 148.654C161.678 148.654 161.802 148.649 161.93 148.638C163.274 148.528 164.501 147.831 165.285 146.732L183.668 120.996C185.141 118.935 184.664 116.07 182.6 114.598C180.543 113.121 177.674 113.603 176.201 115.664L160.967 136.995L151.339 127.367C149.548 125.576 146.645 125.576 144.854 127.367C143.063 129.158 143.063 132.062 144.854 133.855L158.309 147.312C159.169 148.172 160.338 148.654 161.552 148.654Z" fill="#4B91F1"/>
</g>
</g>
</g>
</g>
</g>
<defs>
<clipPath id="clip0_0_3">
<rect width="700" height="189" fill="white" transform="translate(0.575745 0.42453)"/>
</clipPath>
<clipPath id="clip1_0_3">
<rect width="698.629" height="188.849" fill="white" transform="translate(1.26135 0.5)"/>
</clipPath>
<clipPath id="clip2_0_3">
<rect width="698.629" height="188.849" fill="white" transform="translate(1.26135 0.5)"/>
</clipPath>
<clipPath id="clip3_0_3">
<rect width="482.022" height="136.649" fill="white" transform="translate(217.868 26.6)"/>
</clipPath>
<clipPath id="clip4_0_3">
<rect width="482.022" height="136.649" fill="white" transform="translate(217.868 26.6)"/>
</clipPath>
<clipPath id="clip5_0_3">
<rect width="482.022" height="136.649" fill="white" transform="translate(217.868 26.6)"/>
</clipPath>
<clipPath id="clip6_0_3">
<rect width="424.481" height="79.1077" fill="white" transform="translate(246.639 55.3707)"/>
</clipPath>
<clipPath id="clip7_0_3">
<rect width="202.222" height="188.849" fill="white" transform="translate(1.26135 0.5)"/>
</clipPath>
<clipPath id="clip8_0_3">
<rect width="202.222" height="188.849" fill="white" transform="translate(1.26135 0.5)"/>
</clipPath>
</defs>
</svg>
