<svg xmlns="http://www.w3.org/2000/svg" version="1.1" xmlns:xlink="http://www.w3.org/1999/xlink" xmlns:svgjs="http://svgjs.dev/svgjs" width="1000" height="1000" viewBox="0 0 1000 1000"><rect width="1000" height="1000" fill="#ffffff"></rect><g transform="matrix(0.7,0,0,0.7,149.57575757575756,405.4245372187655)"><svg viewBox="0 0 396 107" data-background-color="#ffffff" preserveAspectRatio="xMidYMid meet" height="270" width="1000" xmlns="http://www.w3.org/2000/svg" xmlns:xlink="http://www.w3.org/1999/xlink"><g id="tight-bounds" transform="matrix(1,0,0,1,0.2400000000000091,0.04272231530205772)"><svg viewBox="0 0 395.52 106.91455536939588" height="106.91455536939588" width="395.52"><g><svg viewBox="0 0 573.2553467085645 154.95889084363637" height="106.91455536939588" width="395.52"><g transform="matrix(1,0,0,1,177.73534670856455,21.416170876363637)"><svg viewBox="0 0 395.52 112.1265490909091" height="112.1265490909091" width="395.52"><g><svg viewBox="0 0 395.52 112.1265490909091" height="112.1265490909091" width="395.52"><g><svg viewBox="0 0 395.52 112.1265490909091" height="112.1265490909091" width="395.52"><rect width="395.52" height="112.1265490909091" x="0" y="0" opacity="1" fill="#4b91f1" data-fill-palette-color="tertiary"></rect><g transform="matrix(1,0,0,1,23.607599999999998,23.607599999999998)"><svg width="348.3048" viewBox="3.85 -34.85 186.99 34.85" height="64.9113490909091" data-palette-color="#ffffff"><path d="M28.7 0L22.75 0 8.4-15.9 8.4 0 3.85 0 3.85-34.85 8.4-34.85 8.4-18.7 22.8-34.85 28.55-34.85 12.75-17.4 28.7 0ZM57.2 0L54.4-7.75 39.2-7.75 36.4 0 31.6 0 44.2-34.65 49.45-34.65 62 0 57.2 0ZM40.5-11.45L53.1-11.45 46.8-29.05 40.5-11.45ZM72.05-34.85L72.05-3.7 84.25-3.7 84.25 0 67.5 0 67.5-34.85 72.05-34.85ZM119.59-34.6L124.44-34.6 124.44 0 119.89 0 119.89-25.8 108.39 0 105.19 0 93.64-25.85 93.64 0 89.09 0 89.09-34.6 93.99-34.6 106.79-6 119.59-34.6ZM155.54 0L152.74-7.75 137.54-7.75 134.74 0 129.94 0 142.54-34.65 147.79-34.65 160.34 0 155.54 0ZM138.84-11.45L151.44-11.45 145.14-29.05 138.84-11.45ZM190.84-34.85L180.09-17.4 190.79 0 185.64 0 177.29-13.6 169.34 0 164.29 0 174.94-17.4 164.24-34.85 169.34-34.85 177.74-21.2 185.74-34.85 190.84-34.85Z" opacity="1" transform="matrix(1,0,0,1,0,0)" fill="#ffffff" class="undefined-text-0" data-fill-palette-color="quaternary" id="text-0"></path></svg></g></svg></g></svg></g></svg></g><g><svg viewBox="0 0 165.93154670856455 154.95889084363637" height="154.95889084363637" width="165.93154670856455"><g><svg xmlns="http://www.w3.org/2000/svg" xmlns:xlink="http://www.w3.org/1999/xlink" version="1.1" x="0" y="0" viewBox="5 8.826 88.178 82.34700000000001" style="enable-background:new 0 0 100 100;" xml:space="preserve" height="154.95889084363637" width="165.93154670856455" class="icon-icon-0" data-fill-palette-color="accent" id="icon-0"><g fill="#4b91f1" data-fill-palette-color="accent"><path d="M7 87.173c-1.104 0-2 0.896-2 2s0.896 2 2 2h32.235 16.804 32.235c1.104 0 2-0.896 2-2s-0.896-2-2-2h-6.741v-5.032c0-0.109-0.015-0.214-0.032-0.318 6.765-2.178 11.677-8.526 11.677-16.006 0-7.48-4.912-13.829-11.677-16.007 0.017-0.105 0.032-0.211 0.032-0.321V21.215h1.565c2.066 0 3.747-1.681 3.747-3.747v-4.895c0-2.066-1.681-3.747-3.747-3.747H12.176c-2.065 0-3.746 1.681-3.746 3.747v4.895c0 2.066 1.681 3.747 3.746 3.747h1.566v65.958H7zM54.039 87.172H41.235V74.839h12.804V87.172zM12.43 12.827h70.416v4.389H67.438c-0.015 0-0.029 0.004-0.044 0.004h-1.831c-1.104 0-2 0.896-2 2s0.896 2 2 2h11.971v27.84C77.144 49.032 76.757 49 76.361 49c-2.978 0-5.772 0.786-8.201 2.149V49.82c0-1.104-0.896-2-2-2H55.869c-1.104 0-2 0.896-2 2v13.042c0 1.104 0.896 2 2 2h3.723c-0.018 0.318-0.048 0.632-0.048 0.955 0 5.619 2.79 10.843 7.462 13.977 0.921 0.615 2.161 0.371 2.775-0.547 0.615-0.917 0.37-2.16-0.547-2.775-3.563-2.389-5.69-6.372-5.69-10.654C63.544 58.75 69.294 53 76.361 53s12.816 5.75 12.816 12.817c0 7.067-5.749 12.816-12.816 12.816-1.009 0-2.014-0.117-2.984-0.349-1.071-0.256-2.153 0.406-2.409 1.481-0.256 1.075 0.407 2.153 1.481 2.409 1.275 0.304 2.591 0.458 3.912 0.458 0.396 0 0.783-0.032 1.172-0.059v4.598H58.039V72.839c0-1.104-0.896-2-2-2H39.235c-1.104 0-2 0.896-2 2v14.333H17.742V21.22h42.633c1.104 0 2-0.896 2-2s-0.896-2-2-2h-3.206c-0.015 0-0.029-0.004-0.044-0.004H12.43V12.827zM60.283 60.892c-0.097-0.014-0.193-0.03-0.294-0.03h-2.12V51.82h6.291v0.854c0 0.445 0.15 0.851 0.396 1.184C62.598 55.791 61.11 58.197 60.283 60.892z" fill="#4b91f1" data-fill-palette-color="accent"></path><path d="M39.407 25.613H29.119c-1.104 0-2 0.896-2 2v13.036c0 1.104 0.896 2 2 2h10.288c1.104 0 2-0.896 2-2V27.613C41.407 26.508 40.512 25.613 39.407 25.613zM37.407 38.648h-6.288v-9.036h6.288V38.648z" fill="#4b91f1" data-fill-palette-color="accent"></path><path d="M53.868 27.613v13.036c0 1.104 0.896 2 2 2h10.288c1.104 0 2-0.896 2-2V27.613c0-1.104-0.896-2-2-2H55.868C54.764 25.613 53.868 26.508 53.868 27.613zM57.868 29.613h6.288v9.036h-6.288V29.613z" fill="#4b91f1" data-fill-palette-color="accent"></path><path d="M39.407 47.824H29.119c-1.104 0-2 0.896-2 2v4.51c0 1.104 0.896 2 2 2s2-0.896 2-2v-2.51h6.288v9.035h-6.288v-1.275c0-1.104-0.896-2-2-2s-2 0.896-2 2v3.275c0 1.104 0.896 2 2 2h10.288c1.104 0 2-0.896 2-2V49.824C41.407 48.719 40.512 47.824 39.407 47.824z" fill="#4b91f1" data-fill-palette-color="accent"></path><path d="M74.894 73.428c0.055 0 0.109-0.002 0.165-0.007 0.586-0.048 1.121-0.352 1.463-0.831l8.016-11.222c0.642-0.899 0.434-2.148-0.466-2.79-0.897-0.644-2.148-0.434-2.79 0.465l-6.643 9.301-4.198-4.198c-0.781-0.781-2.047-0.781-2.828 0-0.781 0.781-0.781 2.047 0 2.829l5.867 5.868C73.855 73.218 74.365 73.428 74.894 73.428z" fill="#4b91f1" data-fill-palette-color="accent"></path></g></svg></g></svg></g></svg></g><defs></defs></svg><rect width="395.52" height="106.91455536939588" fill="none" stroke="none" visibility="hidden"></rect></g></svg></g></svg>