<svg xmlns="http://www.w3.org/2000/svg" version="1.1" xmlns:xlink="http://www.w3.org/1999/xlink" xmlns:svgjs="http://svgjs.dev/svgjs" width="1000" height="1000" viewBox="0 0 1000 1000"><rect width="1000" height="1000" fill="#ffffff"></rect><g transform="matrix(0.7,0,0,0.7,149.57575757575756,383.04302708200447)"><svg viewBox="0 0 396 132" data-background-color="#ffffff" preserveAspectRatio="xMidYMid meet" height="333" width="1000" xmlns="http://www.w3.org/2000/svg" xmlns:xlink="http://www.w3.org/1999/xlink"><g id="tight-bounds" transform="matrix(1,0,0,1,0.2400000000000091,0.2304608544633595)"><svg viewBox="0 0 395.52 131.53907829107328" height="131.53907829107328" width="395.52"><g><svg viewBox="0 0 395.52 131.53907829107328" height="131.53907829107328" width="395.52"><g><svg viewBox="0 0 395.52 131.53907829107328" height="131.53907829107328" width="395.52"><g><svg viewBox="0 0 395.52 131.53907829107328" height="131.53907829107328" width="395.52"><g><svg viewBox="0 0 395.52 131.53907829107328" height="131.53907829107328" width="395.52"><rect width="395.52" height="131.53907829107328" x="0" y="0" opacity="1" fill="#4b91f1" data-fill-palette-color="tertiary"></rect><g transform="matrix(1,0,0,1,23.607599999999998,23.607599999999998)"><svg width="348.3048" viewBox="3.8499999046325684 -34.849998474121094 143.9399871826172 34.849998474121094" height="84.3238782910733" data-palette-color="#ffffff"><path d="M28.7 0L22.75 0 8.4-15.9 8.4 0 3.85 0 3.85-34.85 8.4-34.85 8.4-18.7 22.8-34.85 28.55-34.85 12.75-17.4 28.7 0ZM57.2 0L54.4-7.75 39.2-7.75 36.4 0 31.6 0 44.2-34.65 49.45-34.65 62 0 57.2 0ZM40.5-11.45L53.1-11.45 46.8-29.05 40.5-11.45ZM72.05-34.85L72.05-3.7 84.25-3.7 84.25 0 67.5 0 67.5-34.85 72.05-34.85ZM112.49 0L109.69-7.75 94.49-7.75 91.69 0 86.89 0 99.49-34.65 104.74-34.65 117.29 0 112.49 0ZM95.79-11.45L108.39-11.45 102.09-29.05 95.79-11.45ZM147.79-34.85L137.04-17.4 147.74 0 142.59 0 134.24-13.6 126.29 0 121.24 0 131.89-17.4 121.19-34.85 126.29-34.85 134.69-21.2 142.69-34.85 147.79-34.85Z" opacity="1" transform="matrix(1,0,0,1,0,0)" fill="#ffffff" class="undefined-text-0" data-fill-palette-color="quaternary" id="text-0"></path></svg></g></svg></g></svg></g></svg></g><g></g></svg></g><defs></defs></svg><rect width="395.52" height="131.53907829107328" fill="none" stroke="none" visibility="hidden"></rect></g></svg></g></svg>